<svg width="371" height="203" viewBox="0 0 371 203" fill="none" xmlns="http://www.w3.org/2000/svg">
<g opacity="0.4">
<path d="M95.0179 153.596C134.773 153.596 167.002 121.368 167.002 81.6127C167.002 41.8572 134.773 9.62903 95.0179 9.62903C55.2624 9.62903 23.0342 41.8572 23.0342 81.6127C23.0342 121.368 55.2624 153.596 95.0179 153.596Z" fill="#2A2E37"/>
<path d="M358.085 160.608H16.3965L69.5896 89.185L92.4001 58.8958L112.312 80.4909L116.145 84.6042L158.962 25.3345L177.285 0L191.588 20.8472L240.294 91.8026L259.926 69.3661L269.929 57.8674L278.436 68.0573L358.085 160.608Z" fill="#5C6479"/>
<path d="M92.4001 58.8958L91.4652 160.608H16.3965L69.5896 89.185L92.4001 58.8958Z" fill="#474E61"/>
<path d="M177.285 0L174.2 149.95L116.146 84.6042L177.285 0Z" fill="#474E61"/>
<path d="M271.705 145.931L240.294 91.8026L269.929 57.8674L271.705 145.931Z" fill="#474E61"/>
<path d="M2 160.608H91.4655H358.086H369.023" stroke="#3D4550" stroke-width="3" stroke-miterlimit="10" stroke-linecap="round" stroke-linejoin="round"/>
<path d="M194.954 175.752H218.699" stroke="#3D4550" stroke-width="3" stroke-miterlimit="10" stroke-linecap="round" stroke-linejoin="round"/>
<path d="M260.394 175.752H284.139" stroke="#3D4550" stroke-width="3" stroke-miterlimit="10" stroke-linecap="round" stroke-linejoin="round"/>
<path d="M245.903 175.752H250.952" stroke="#3D4550" stroke-width="3" stroke-miterlimit="10" stroke-linecap="round" stroke-linejoin="round"/>
<path d="M88.1938 175.752H173.266" stroke="#3D4550" stroke-width="3" stroke-miterlimit="10" stroke-linecap="round" stroke-linejoin="round"/>
<path d="M52.2949 175.752H63.0457" stroke="#3D4550" stroke-width="3" stroke-miterlimit="10" stroke-linecap="round" stroke-linejoin="round"/>
<path d="M325.553 175.752H355.468" stroke="#3D4550" stroke-width="3" stroke-miterlimit="10" stroke-linecap="round" stroke-linejoin="round"/>
<path d="M6.95459 175.752H36.0285" stroke="#3D4550" stroke-width="3" stroke-miterlimit="10" stroke-linecap="round" stroke-linejoin="round"/>
<path d="M30.1392 188.373H124.092" stroke="#3D4550" stroke-width="3" stroke-miterlimit="10" stroke-linecap="round" stroke-linejoin="round"/>
<path d="M179.622 188.373H245.903" stroke="#3D4550" stroke-width="3" stroke-miterlimit="10" stroke-linecap="round" stroke-linejoin="round"/>
<path d="M280.025 188.373H346.306" stroke="#3D4550" stroke-width="3" stroke-miterlimit="10" stroke-linecap="round" stroke-linejoin="round"/>
<path d="M151.95 188.373H166.44" stroke="#3D4550" stroke-width="3" stroke-miterlimit="10" stroke-linecap="round" stroke-linejoin="round"/>
<path d="M225.43 200.9H305.641" stroke="#3D4550" stroke-width="3" stroke-miterlimit="10" stroke-linecap="round" stroke-linejoin="round"/>
<path d="M142.041 200.9H194.954" stroke="#3D4550" stroke-width="3" stroke-miterlimit="10" stroke-linecap="round" stroke-linejoin="round"/>
<path d="M108.386 200.9H124.092" stroke="#3D4550" stroke-width="3" stroke-miterlimit="10" stroke-linecap="round" stroke-linejoin="round"/>
<path d="M49.771 200.9H84.4541" stroke="#3D4550" stroke-width="3" stroke-miterlimit="10" stroke-linecap="round" stroke-linejoin="round"/>
<path d="M126.803 136.395C126.803 142.285 122.035 144.902 116.239 144.902C110.443 144.902 105.675 142.285 105.675 136.395C105.675 130.505 116.239 94.1396 116.239 94.1396C116.239 94.1396 126.803 130.599 126.803 136.395Z" fill="#B5BECF"/>
<path d="M116.146 126.112V159.486" stroke="#7D87A0" stroke-width="2" stroke-miterlimit="10" stroke-linecap="round" stroke-linejoin="round"/>
<path d="M116.146 131.908L119.979 128.449" stroke="#7D87A0" stroke-width="2" stroke-miterlimit="10" stroke-linecap="round" stroke-linejoin="round"/>
<path d="M116.146 139.854L110.63 133.31" stroke="#7D87A0" stroke-width="2" stroke-miterlimit="10" stroke-linecap="round" stroke-linejoin="round"/>
<path d="M221.784 133.778C221.784 140.321 216.455 143.22 210.005 143.22C203.461 143.22 198.226 140.321 198.226 133.778C198.226 127.234 210.005 86.7544 210.005 86.7544C210.005 86.7544 221.784 127.327 221.784 133.778Z" fill="#B5BECF"/>
<path d="M210.005 122.279V159.486" stroke="#7D87A0" stroke-width="2" stroke-miterlimit="10" stroke-linecap="round" stroke-linejoin="round"/>
<path d="M210.005 128.823L214.212 124.896" stroke="#7D87A0" stroke-width="2" stroke-miterlimit="10" stroke-linecap="round" stroke-linejoin="round"/>
<path d="M210.005 137.704L203.835 130.319" stroke="#7D87A0" stroke-width="2" stroke-miterlimit="10" stroke-linecap="round" stroke-linejoin="round"/>
<path d="M260.113 143.781C260.113 147.8 256.841 149.577 252.915 149.577C248.895 149.577 245.716 147.8 245.716 143.781C245.716 139.761 252.915 114.987 252.915 114.987C252.915 114.987 260.113 139.761 260.113 143.781Z" fill="#B5BECF"/>
<path d="M252.821 136.769V159.486" stroke="#7D87A0" stroke-width="2" stroke-miterlimit="10" stroke-linecap="round" stroke-linejoin="round"/>
<path d="M252.821 140.696L255.439 138.358" stroke="#7D87A0" stroke-width="2" stroke-miterlimit="10" stroke-linecap="round" stroke-linejoin="round"/>
<path d="M252.821 146.118L249.082 141.63" stroke="#7D87A0" stroke-width="2" stroke-miterlimit="10" stroke-linecap="round" stroke-linejoin="round"/>
<path d="M298.722 139.293C298.722 144.435 294.609 146.678 289.467 146.678C284.326 146.678 280.212 144.435 280.212 139.293C280.212 134.151 289.467 102.273 289.467 102.273C289.467 102.273 298.722 134.151 298.722 139.293Z" fill="#B5BECF"/>
<path d="M289.467 130.225V159.486" stroke="#7D87A0" stroke-width="2" stroke-miterlimit="10" stroke-linecap="round" stroke-linejoin="round"/>
<path d="M289.467 135.273L292.739 132.282" stroke="#7D87A0" stroke-width="2" stroke-miterlimit="10" stroke-linecap="round" stroke-linejoin="round"/>
<path d="M289.467 142.285L284.605 136.489" stroke="#7D87A0" stroke-width="2" stroke-miterlimit="10" stroke-linecap="round" stroke-linejoin="round"/>
<path opacity="0.8" d="M116.987 85.1651L100.907 86.5674L93.4286 94.2332L84.454 92.644L69.5898 101.899L64.9155 95.8225L92.6807 58.8958L116.987 85.1651Z" fill="#A9AFC3"/>
<path opacity="0.6" d="M198.88 31.4111L191.308 29.7283L183.549 33.3743L177.285 31.785L171.302 42.4423L161.954 38.0485L151.483 42.4423L149.707 38.329L177.285 0L198.88 31.4111Z" fill="#A9AFC3"/>
<path opacity="0.6" d="M283.391 73.4795L275.538 79.6495L268.246 75.6296L257.963 81.6127L255.065 75.3492L270.303 57.8674L283.391 73.4795Z" fill="#A9AFC3"/>
<path d="M85.2958 31.2242C86.7916 30.8503 88.1939 30.7568 89.6896 30.7568C91.0919 30.7568 92.5877 30.8503 93.99 31.0372C95.3922 31.2242 96.888 31.5981 98.2903 32.2525C99.6926 32.9069 101.095 33.8418 101.936 35.431L100.347 35.0571L102.03 33.7483C102.684 33.3744 103.245 32.9069 103.806 32.533C105.021 31.7851 106.33 31.1307 107.732 30.6633C109.135 30.1959 110.537 29.8219 111.939 29.6349C113.435 29.5415 114.837 29.5415 116.333 29.9154C116.613 30.0089 116.707 30.2893 116.613 30.4763C116.52 30.7568 116.333 30.8503 116.052 30.7568H115.959C114.744 30.4763 113.341 30.5698 112.033 30.7568C110.724 30.9437 109.415 31.4112 108.2 31.9721C106.984 32.533 105.863 33.1874 104.741 33.9353C104.18 34.3092 103.619 34.7766 103.152 35.1506L101.656 36.4594C101.188 36.8333 100.627 36.7398 100.253 36.3659L100.16 36.4594L100.067 36.2724C99.6926 35.2441 98.6642 34.4027 97.5424 33.8418C96.4206 33.2809 95.1118 32.8134 93.7095 32.533C92.4007 32.2525 90.9984 32.0656 89.5961 31.9721C88.1939 31.8786 86.7916 31.8786 85.5763 32.159H85.4828C85.2023 32.2525 85.0154 32.0656 84.9219 31.7851C84.9219 31.5047 85.0154 31.2242 85.2958 31.2242Z" fill="#5C6479"/>
<path d="M43.788 56.8391C45.2838 56.4651 46.6861 56.3716 48.1818 56.3716C49.5841 56.3716 51.0799 56.4651 52.4821 56.6521C53.8844 56.8391 55.3802 57.213 56.7825 57.8674C58.1847 58.5218 59.587 59.4567 60.4284 61.0459L58.8391 60.672L60.5219 59.3632C61.1763 58.9892 61.7372 58.5218 62.2981 58.1479C63.5134 57.4 64.8222 56.7456 66.2245 56.2782C67.6268 55.8107 69.029 55.4368 70.4313 55.2498C71.9271 55.1563 73.3294 55.1563 74.8251 55.5303C75.1056 55.6238 75.1991 55.9042 75.1056 56.0912C75.0121 56.3716 74.8251 56.4651 74.5447 56.3716H74.4512C73.2359 56.0912 71.8336 56.1847 70.5248 56.3716C69.216 56.5586 67.9072 57.026 66.6919 57.5869C65.4766 58.1479 64.3548 58.8023 63.233 59.5501C62.672 59.9241 62.1111 60.3915 61.6437 60.7654L60.1479 62.0742C59.6805 62.4482 59.1196 62.3547 58.7457 61.9808L58.6522 61.8873L58.5587 61.7003C58.1847 60.672 57.1564 59.8306 56.0346 59.2697C54.9128 58.7088 53.604 58.2413 52.2017 57.9609C50.8929 57.6804 49.4906 57.4935 48.0883 57.4C46.686 57.3065 45.2838 57.3065 44.0685 57.5869H43.975C43.6945 57.6804 43.5075 57.4935 43.4141 57.213C43.4141 57.1195 43.601 56.8391 43.788 56.8391Z" fill="#5C6479"/>
<path d="M95.392 53.1932C96.8878 52.8192 98.2901 52.7258 99.7858 52.7258C101.188 52.7258 102.684 52.8192 104.086 53.0062C105.488 53.1932 106.984 53.5671 108.386 54.2215C109.789 54.8759 111.191 55.8108 112.032 57.4L110.443 57.0261L112.126 55.7173C112.78 55.3434 113.341 54.8759 113.902 54.502C115.117 53.7541 116.426 53.0997 117.828 52.6323C119.231 52.1648 120.633 51.7909 122.035 51.6039C123.531 51.5105 124.933 51.5105 126.429 51.8844C126.71 51.9779 126.803 52.2583 126.71 52.4453C126.616 52.7258 126.429 52.8192 126.149 52.7258H126.055C124.84 52.4453 123.438 52.5388 122.129 52.7258C120.82 52.9127 119.511 53.3802 118.296 53.9411C117.081 54.502 115.959 55.1564 114.837 55.9043C114.276 56.2782 113.715 56.7456 113.248 57.1196L111.752 58.4284C111.285 58.8023 110.724 58.7088 110.35 58.3349L110.256 58.2414L110.163 58.0544C109.789 57.0261 108.76 56.1847 107.639 55.6238C106.517 55.0629 105.208 54.5955 103.806 54.315C102.497 54.0346 101.095 53.8476 99.6923 53.7541C98.2901 53.6606 96.8878 53.6606 95.6725 53.9411H95.579C95.2985 54.0346 95.1116 53.8476 95.0181 53.5671C95.0181 53.4736 95.1116 53.1932 95.392 53.1932Z" fill="#5C6479"/>
<g filter="url(#filter0_d_45_1847)">
<path d="M245.716 54.4715C245.716 59.8515 241.365 64.2024 235.938 64.2024C235.845 64.2024 235.049 64.2024 229.201 64.2024C225.131 64.2024 218.628 64.2024 208.243 64.2024H203.284C196.781 64.3427 191.588 59.1498 191.588 52.8809C191.588 46.5652 196.828 41.3255 203.424 41.653C209.085 23.969 235.002 26.4485 237.201 44.7406C242.067 45.3488 245.716 49.4657 245.716 54.4715Z" fill="#5C6479"/>
</g>
<path d="M219.985 64.296C229.576 64.296 237.389 56.53 237.389 46.9395C237.389 37.349 229.576 29.583 219.985 29.583C210.395 29.583 202.582 37.349 202.582 46.9395C202.582 56.53 210.348 64.296 219.985 64.296Z" fill="url(#paint0_linear_45_1847)"/>
<path d="M235.938 64.2024C241.318 64.2024 245.716 59.8516 245.716 54.4716C245.716 49.0915 241.318 44.7407 235.938 44.7407C230.558 44.7407 226.161 49.0915 226.161 54.4716C226.161 59.8516 230.558 64.2024 235.938 64.2024Z" fill="url(#paint1_linear_45_1847)" fill-opacity="0.37"/>
<g filter="url(#filter1_d_45_1847)">
<path d="M160.779 71.5898C160.779 75.6451 157.499 78.9246 153.409 78.9246C153.338 78.9246 152.739 78.9246 148.331 78.9246C145.263 78.9246 140.361 78.9246 132.532 78.9246H128.794C123.893 79.0304 119.979 75.1161 119.979 70.3908C119.979 65.6302 123.928 61.6806 128.9 61.9275C133.167 48.5978 152.703 50.4668 154.361 64.2549C158.028 64.7133 160.779 67.8165 160.779 71.5898Z" fill="#5C6479"/>
</g>
<path d="M141.383 78.9952C148.612 78.9952 154.501 73.1414 154.501 65.9123C154.501 58.6832 148.612 52.8295 141.383 52.8295C134.154 52.8295 128.265 58.6832 128.265 65.9123C128.265 73.1414 134.119 78.9952 141.383 78.9952Z" fill="url(#paint2_linear_45_1847)"/>
<path d="M153.409 78.9246C157.464 78.9246 160.779 75.6451 160.779 71.5897C160.779 67.5344 157.464 64.2549 153.409 64.2549C149.353 64.2549 146.039 67.5344 146.039 71.5897C146.039 75.6451 149.353 78.9246 153.409 78.9246Z" fill="url(#paint3_linear_45_1847)" fill-opacity="0.37"/>
</g>
<defs>
<filter id="filter0_d_45_1847" x="178.588" y="27.6252" width="80.1279" height="60.58" filterUnits="userSpaceOnUse" color-interpolation-filters="sRGB">
<feFlood flood-opacity="0" result="BackgroundImageFix"/>
<feColorMatrix in="SourceAlpha" type="matrix" values="0 0 0 0 0 0 0 0 0 0 0 0 0 0 0 0 0 0 127 0" result="hardAlpha"/>
<feOffset dy="11"/>
<feGaussianBlur stdDeviation="6.5"/>
<feColorMatrix type="matrix" values="0 0 0 0 0 0 0 0 0 0 0 0 0 0 0 0 0 0 0.22 0"/>
<feBlend mode="normal" in2="BackgroundImageFix" result="effect1_dropShadow_45_1847"/>
<feBlend mode="normal" in="SourceGraphic" in2="effect1_dropShadow_45_1847" result="shape"/>
</filter>
<filter id="filter1_d_45_1847" x="106.979" y="50.8613" width="66.8003" height="52.0654" filterUnits="userSpaceOnUse" color-interpolation-filters="sRGB">
<feFlood flood-opacity="0" result="BackgroundImageFix"/>
<feColorMatrix in="SourceAlpha" type="matrix" values="0 0 0 0 0 0 0 0 0 0 0 0 0 0 0 0 0 0 127 0" result="hardAlpha"/>
<feOffset dy="11"/>
<feGaussianBlur stdDeviation="6.5"/>
<feColorMatrix type="matrix" values="0 0 0 0 0 0 0 0 0 0 0 0 0 0 0 0 0 0 0.22 0"/>
<feBlend mode="normal" in2="BackgroundImageFix" result="effect1_dropShadow_45_1847"/>
<feBlend mode="normal" in="SourceGraphic" in2="effect1_dropShadow_45_1847" result="shape"/>
</filter>
<linearGradient id="paint0_linear_45_1847" x1="206.824" y1="36.7931" x2="212.651" y2="41.2975" gradientUnits="userSpaceOnUse">
<stop stop-color="#80889D"/>
<stop offset="0.9942" stop-color="#5C6479"/>
</linearGradient>
<linearGradient id="paint1_linear_45_1847" x1="225.098" y1="42.6763" x2="233.751" y2="52.1615" gradientUnits="userSpaceOnUse">
<stop stop-color="white"/>
<stop offset="0.9942" stop-color="white" stop-opacity="0"/>
</linearGradient>
<linearGradient id="paint2_linear_45_1847" x1="131.462" y1="58.2642" x2="135.855" y2="61.6595" gradientUnits="userSpaceOnUse">
<stop stop-color="#80889D"/>
<stop offset="0.9942" stop-color="#5C6479"/>
</linearGradient>
<linearGradient id="paint3_linear_45_1847" x1="145.238" y1="62.6988" x2="151.76" y2="69.8485" gradientUnits="userSpaceOnUse">
<stop stop-color="white"/>
<stop offset="0.9942" stop-color="white" stop-opacity="0"/>
</linearGradient>
</defs>
</svg>
