<svg width="16" height="16" viewBox="0 0 16 16" fill="none" xmlns="http://www.w3.org/2000/svg">
<path d="M6 6.66667C6 6.29848 6.29848 6 6.66667 6H8C8.36819 6 8.66667 6.29848 8.66667 6.66667V10H10C10.3682 10 10.6667 10.2985 10.6667 10.6667C10.6667 11.0349 10.3682 11.3333 10 11.3333H6C5.63181 11.3333 5.33333 11.0349 5.33333 10.6667C5.33333 10.2985 5.63181 10 6 10H7.33333V7.33333H6.66667C6.29848 7.33333 6 7.03486 6 6.66667Z" fill="#596188"/>
<path d="M7.66667 5.33333C8.21895 5.33333 8.66667 4.88562 8.66667 4.33333C8.66667 3.78105 8.21895 3.33333 7.66667 3.33333C7.11438 3.33333 6.66667 3.78105 6.66667 4.33333C6.66667 4.88562 7.11438 5.33333 7.66667 5.33333Z" fill="#596188"/>
<path fill-rule="evenodd" clip-rule="evenodd" d="M0 8C0 3.58172 3.58172 0 8 0C12.4183 0 16 3.58172 16 8C16 12.4183 12.4183 16 8 16C3.58172 16 0 12.4183 0 8ZM8 1.33333C4.3181 1.33333 1.33333 4.3181 1.33333 8C1.33333 11.6819 4.3181 14.6667 8 14.6667C11.6819 14.6667 14.6667 11.6819 14.6667 8C14.6667 4.3181 11.6819 1.33333 8 1.33333Z" fill="#596188"/>
</svg>
