<svg width="40" height="40" viewBox="0 0 40 40" fill="none" xmlns="http://www.w3.org/2000/svg">
<circle cx="20" cy="20" r="20" fill="#844CF3"/>
<mask id="mask0_47_1814" style="mask-type:alpha" maskUnits="userSpaceOnUse" x="0" y="0" width="40" height="40">
<circle cx="20" cy="20" r="20" fill="#844CF3"/>
</mask>
<g mask="url(#mask0_47_1814)">
<path fill-rule="evenodd" clip-rule="evenodd" d="M18.2218 5.94556C17.2903 6.4804 16.4774 6.96857 16.4153 7.0304C16.3078 7.13747 16.3018 7.22761 16.2893 8.91622L16.2761 10.6896L14.8497 11.5878L13.4234 12.4861L13.3896 12.0436C13.371 11.8001 13.3386 11.5616 13.3175 11.5135C13.2654 11.3943 9.82945 9.41298 9.67494 9.41298C9.5564 9.41298 6.30094 11.2621 6.09879 11.4443C6.00858 11.5256 6.00006 11.6913 6.00085 13.3573C6.00135 14.3605 6.02365 15.2162 6.05041 15.2587C6.07723 15.3012 6.80715 15.7251 7.67255 16.2007L9.24597 17.0653V19.3626V21.66L7.75 22.5211C6.92722 22.9947 6.1969 23.4242 6.12702 23.4756L6 23.5692V25.4411V27.3131L6.21169 27.4497C6.73031 27.7845 9.5669 29.3038 9.67325 29.3038C9.73828 29.3038 10.4404 28.9478 11.2334 28.5128L12.6753 27.7217L14.503 28.9482L16.3306 30.1747V31.0962C16.3306 31.7652 16.35 32.0339 16.4014 32.0769C16.4403 32.1094 17.2468 32.5613 18.1937 33.0812C19.4899 33.7929 19.9502 34.0196 20.0565 33.9987C20.2203 33.9666 23.4867 32.182 23.6129 32.0558C23.6795 31.9891 23.7017 31.7739 23.7168 31.0494L23.736 30.1278L25.5328 28.9232L27.3295 27.7185L28.7717 28.5112C29.5649 28.9471 30.2661 29.3038 30.3301 29.3038C30.4372 29.3038 33.492 27.6627 33.8448 27.4157L34 27.307V25.4395V23.5721L33.8649 23.4686C33.7906 23.4116 33.055 22.9814 32.2302 22.5125L30.7306 21.66L30.7423 19.3657L30.754 17.0713L32.3256 16.2067C33.19 15.7312 33.9199 15.3059 33.9477 15.2617C33.9755 15.2175 33.9986 14.361 33.9992 13.3584C34 11.5394 33.9997 11.5353 33.873 11.4207C33.6647 11.2324 30.4548 9.41298 30.3309 9.41298C30.1813 9.41298 26.733 11.3976 26.6827 11.5127C26.6615 11.5612 26.629 11.8004 26.6104 12.0442L26.5766 12.4874L25.1509 11.5872L23.7251 10.6868L23.7114 8.91486C23.6983 7.22812 23.6922 7.13736 23.5847 7.03018C23.4262 6.87207 20.2365 5.03615 20.0601 5.00154C19.9477 4.97943 19.5372 5.19022 18.2218 5.94556ZM21.244 6.55195C21.9266 6.94754 22.4784 7.27671 22.4703 7.28342C22.4004 7.34167 20.0392 8.61735 20.0012 8.61735C19.9739 8.61735 19.4353 8.33268 18.8044 7.98477C18.1735 7.63679 17.6236 7.33422 17.5825 7.31234C17.5355 7.28739 17.9659 7.00682 18.7398 6.55797C19.4174 6.16498 19.9788 5.84099 19.9874 5.83804C19.996 5.83508 20.5615 6.15629 21.244 6.55195ZM18.4133 8.67418L19.6042 9.32774L19.6046 10.5383L19.6048 11.749L19.1109 11.478C18.8392 11.3289 18.2867 11.0249 17.8831 10.8024L17.1492 10.3978L17.134 9.18986C17.1249 8.4726 17.1398 7.98982 17.1706 8.0013C17.1991 8.01193 17.7584 8.31473 18.4133 8.67418ZM22.866 9.19879L22.8508 10.4054L22.1452 10.7928C21.7571 11.0058 21.2045 11.3077 20.9173 11.4636L20.3952 11.747L20.3962 10.5374L20.3973 9.32774L21.5958 8.66583C22.255 8.30182 22.8139 8.0013 22.8378 7.99806C22.8617 7.99482 22.8744 8.53517 22.866 9.19879ZM10.9718 11.0093C11.6249 11.3886 12.1516 11.7057 12.1422 11.7138C12.0849 11.7629 9.71305 13.05 9.68076 13.0495C9.65897 13.0491 9.08739 12.7457 8.41065 12.3753L7.18018 11.7018L8.41065 10.9883C9.08739 10.5959 9.67336 10.2849 9.71271 10.2972C9.75211 10.3094 10.3187 10.6299 10.9718 11.0093ZM31.581 10.9845L32.8293 11.7037L32.6667 11.7885C32.5772 11.8351 32.0233 12.1381 31.4359 12.4617C30.8484 12.7854 30.3505 13.0502 30.3295 13.0502C30.3084 13.0502 29.8059 12.7831 29.2127 12.4566C28.6196 12.1302 28.0663 11.8272 27.9832 11.7834C27.8336 11.7045 27.8447 11.6963 29.0672 10.9878C29.7466 10.594 30.3092 10.2704 30.3176 10.2687C30.326 10.2669 30.8945 10.589 31.581 10.9845ZM18.2942 11.9378L19.5766 12.6439V14.1616V15.6793L18.1653 16.4951C17.3891 16.9439 16.7273 17.305 16.6947 17.2975C16.662 17.2901 15.8999 16.8016 15.0012 16.2119L13.3669 15.1398L13.3952 14.2849L13.4234 13.4299L15.1452 12.3356C16.0921 11.7337 16.8995 11.2391 16.9394 11.2364C16.9792 11.2337 17.5889 11.5494 18.2942 11.9378ZM24.8362 12.3278L26.5766 13.424L26.6048 14.2828L26.6331 15.1416L25.0016 16.2129C24.1044 16.802 23.3423 17.2901 23.3081 17.2975C23.2739 17.305 22.6109 16.9439 21.8347 16.4951L20.4234 15.6793V14.1617V12.644L21.6935 11.9407C22.3921 11.5539 22.9934 11.2361 23.0297 11.2345C23.066 11.2329 23.8789 11.7249 24.8362 12.3278ZM8.06556 13.0886L9.27419 13.7521V14.9629V16.1737L8.89315 15.9628C8.6836 15.8469 8.13105 15.5435 7.66532 15.2887L6.81855 14.8256L6.80331 13.6253C6.79495 12.9651 6.80359 12.425 6.8225 12.425C6.84147 12.425 7.40085 12.7236 8.06556 13.0886ZM12.6048 13.6054V14.7858L11.631 15.3195C11.0955 15.6131 10.5239 15.9283 10.3609 16.02L10.0645 16.1867L10.065 14.9736L10.0655 13.7605L11.2646 13.0971C11.9241 12.7322 12.4955 12.4317 12.5343 12.4293C12.5886 12.426 12.6048 12.6967 12.6048 13.6054ZM28.7213 13.0928L29.9338 13.7605L29.9347 14.9705L29.9355 16.1805L29.4388 15.9082C29.1657 15.7585 28.5941 15.4442 28.1688 15.2097L27.3954 14.7835L27.3953 13.6043C27.3952 12.8515 27.4157 12.425 27.452 12.425C27.4832 12.425 28.0543 12.7255 28.7213 13.0928ZM33.1967 13.6249L33.1814 14.8248L32.3629 15.2761C31.9127 15.5242 31.3602 15.8288 31.1351 15.953L30.7258 16.1788V14.9687V13.7586L31.9254 13.0948C32.5852 12.7297 33.1445 12.4297 33.1685 12.428C33.1923 12.4264 33.205 12.965 33.1967 13.6249ZM14.4815 16.8203L16.246 17.9763L16.261 19.4566L16.2761 20.9369L14.654 22.0864C13.7618 22.7187 13.0054 23.2462 12.9731 23.2586C12.9408 23.2711 12.2795 22.9135 11.5035 22.4639L10.0927 21.6465V19.3615V17.0765L11.3629 16.3728C12.0615 15.9859 12.652 15.6681 12.675 15.6668C12.6981 15.6655 13.511 16.1846 14.4815 16.8203ZM28.6371 16.3699L29.9073 17.0718V19.364V21.6562L28.496 22.4681C27.7198 22.9146 27.0593 23.2703 27.0282 23.2585C26.9972 23.2466 26.241 22.7181 25.3479 22.084L23.7239 20.9312L23.739 19.4554L23.754 17.9796L25.504 16.8263C26.4665 16.1921 27.2794 15.672 27.3105 15.6706C27.3415 15.6692 27.9385 15.9839 28.6371 16.3699ZM21.2625 17.0786C21.9363 17.4656 22.4804 17.7892 22.4716 17.7975C22.3709 17.893 20.0287 19.1332 19.9735 19.1203C19.8523 19.0918 17.5212 17.7999 17.546 17.775C17.6022 17.7184 19.9754 16.3585 20.0046 16.3662C20.0227 16.3709 20.5888 16.6915 21.2625 17.0786ZM18.408 19.1879L19.6031 19.8414L19.604 21.053L19.6048 22.2645L19.0544 21.965C18.7517 21.8003 18.1992 21.4959 17.8266 21.2885L17.1492 20.9114L17.134 19.7035C17.1255 19.0392 17.1398 18.5044 17.1657 18.515C17.1916 18.5256 17.7506 18.8284 18.408 19.1879ZM22.866 19.7125L22.8508 20.9191L22.1452 21.307C21.7571 21.5203 21.2045 21.8231 20.9173 21.9797L20.3952 22.2645L20.3962 21.053L20.3973 19.8414L21.5958 19.1795C22.255 18.8155 22.8139 18.515 22.8378 18.5118C22.8617 18.5085 22.8744 19.0489 22.866 19.7125ZM18.1935 22.3952L19.5766 23.1568V24.7593V26.3618L18.0524 27.2407C17.2141 27.724 16.4779 28.1688 16.4164 28.2291C16.3297 28.314 16.2998 28.4335 16.2834 28.7609L16.2622 29.1831L14.8146 28.2127C14.0184 27.6789 13.3669 27.2394 13.3669 27.2359C13.3669 27.2324 13.3796 26.4886 13.3952 25.583L13.4234 23.9365L15.0323 22.7879C15.9171 22.1562 16.6792 21.638 16.7258 21.6364C16.7724 21.6349 17.4329 21.9764 18.1935 22.3952ZM24.987 22.7967L26.5992 23.9333L26.602 25.5057C26.6036 26.3705 26.617 27.1122 26.6318 27.1538C26.6493 27.2028 26.144 27.5736 25.1994 28.2051L23.74 29.1808L23.7129 28.7549C23.6927 28.4373 23.6585 28.302 23.5787 28.223C23.5199 28.1648 22.7859 27.7226 21.9476 27.2404L20.4234 26.3636L20.4084 24.7704L20.3934 23.1773L21.7915 22.4054C22.5604 21.9808 23.2312 21.6395 23.2822 21.6467C23.3331 21.6541 24.1003 22.1715 24.987 22.7967ZM10.8481 23.0053C11.4572 23.3544 12.0011 23.6708 12.0566 23.7083C12.1443 23.7676 11.9984 23.8637 10.9493 24.4374C10.2847 24.8009 9.71152 25.0983 9.67556 25.0983C9.6396 25.0983 9.06487 24.7984 8.3984 24.4318C7.27716 23.8152 7.19604 23.7602 7.31306 23.6958C7.38261 23.6575 7.92218 23.3451 8.5121 23.0016C9.10202 22.6581 9.61973 22.3756 9.66258 22.3738C9.70543 22.3719 10.2389 22.6561 10.8481 23.0053ZM31.5963 23.0601C32.2508 23.4395 32.7925 23.7548 32.8001 23.7607C32.8263 23.7814 30.397 25.0983 30.3327 25.0983C30.2613 25.0983 27.8349 23.7842 27.8599 23.759C27.9347 23.6837 30.265 22.3731 30.3261 22.3719C30.3702 22.3711 30.9417 22.6808 31.5963 23.0601ZM8.66666 25.4823L9.27284 25.8087L9.27352 27.0204L9.27419 28.2321L8.63911 27.8867C8.28985 27.6966 7.73126 27.3943 7.39785 27.2149L6.79168 26.8885L6.791 25.6768L6.79032 24.4651L7.4254 24.8105C7.77473 25.0006 8.33326 25.3028 8.66666 25.4823ZM12.5919 25.6691L12.5766 26.8651L11.342 27.5445C10.6628 27.9183 10.0971 28.224 10.0848 28.224C10.0724 28.224 10.0691 27.6826 10.0775 27.021L10.0927 25.818L11.3065 25.1475C11.974 24.7786 12.5397 24.476 12.5636 24.475C12.5875 24.474 12.6002 25.0114 12.5919 25.6691ZM28.6935 25.1431L29.9073 25.8107L29.9225 27.0225C29.9309 27.6889 29.9165 28.2255 29.8905 28.2149C29.8645 28.2043 29.2924 27.8932 28.6191 27.5237L27.3952 26.8518V25.6625C27.3952 25.0083 27.4142 24.4737 27.4375 24.4744C27.4608 24.475 28.026 24.7759 28.6935 25.1431ZM33.209 25.6808L33.2083 26.8885L32.6021 27.2149C32.2687 27.3943 31.7102 27.6966 31.3609 27.8867L30.7258 28.2321L30.7278 27.0204L30.7299 25.8087L31.9557 25.1416C32.6299 24.7747 33.1878 24.4742 33.1956 24.4738C33.2033 24.4734 33.2094 25.0166 33.209 25.6808ZM21.2625 27.7628C21.9363 28.1498 22.4804 28.4734 22.4716 28.4817C22.4108 28.5394 20.0487 29.8153 20.0027 29.8153C19.9587 29.8153 17.6055 28.5457 17.5288 28.4805C17.506 28.4612 19.9658 27.0404 20.0046 27.0505C20.0227 27.0552 20.5888 27.3757 21.2625 27.7628ZM18.408 29.8721L19.6031 30.5257L19.604 31.7372L19.6048 32.9487L19.0827 32.6639C18.7954 32.5073 18.2429 32.2045 17.8548 31.9912L17.1492 31.6033L17.134 30.3916C17.1255 29.7252 17.1398 29.1886 17.1657 29.1992C17.1916 29.2098 17.7506 29.5126 18.408 29.8721ZM22.866 30.3967L22.8508 31.6033L22.1452 31.9912C21.7571 32.2045 21.2045 32.5073 20.9173 32.6639L20.3952 32.9487L20.3971 31.7372L20.399 30.5257L21.5967 29.8638C22.2554 29.4998 22.8139 29.1993 22.8378 29.196C22.8617 29.1928 22.8744 29.7331 22.866 30.3967Z" fill="white"/>
</g>
</svg>
