<svg width="32" height="32" viewBox="0 0 32 32" fill="none" xmlns="http://www.w3.org/2000/svg">
<path d="M30.1333 1.82857L18.125 10.7139L20.3581 5.47747L30.1333 1.82857Z" fill="#E17726" stroke="#E17726" stroke-width="0.25" stroke-linecap="round" stroke-linejoin="round"/>
<path d="M2.43457 1.82857L14.336 10.7968L12.2099 5.47746L2.43457 1.82857Z" fill="#E27625" stroke="#E27625" stroke-width="0.25" stroke-linecap="round" stroke-linejoin="round"/>
<path d="M25.8096 22.4305L22.6145 27.3115L29.456 29.1952L31.4159 22.5372L25.8096 22.4305Z" fill="#E27625" stroke="#E27625" stroke-width="0.25" stroke-linecap="round" stroke-linejoin="round"/>
<path d="M1.16357 22.5372L3.1115 29.1952L9.94117 27.3115L6.75793 22.4305L1.16357 22.5372Z" fill="#E27625" stroke="#E27625" stroke-width="0.25" stroke-linecap="round" stroke-linejoin="round"/>
<path d="M9.57287 14.1851L7.67249 17.0521L14.4427 17.3601L14.2171 10.0742L9.57287 14.1851Z" fill="#E27625" stroke="#E27625" stroke-width="0.25" stroke-linecap="round" stroke-linejoin="round"/>
<path d="M22.9945 14.1851L18.2792 9.9913L18.1248 17.3602L24.8949 17.0522L22.9945 14.1851Z" fill="#E27625" stroke="#E27625" stroke-width="0.25" stroke-linecap="round" stroke-linejoin="round"/>
<path d="M9.94128 27.3115L14.039 25.3331L10.5114 22.5846L9.94128 27.3115Z" fill="#E27625" stroke="#E27625" stroke-width="0.25" stroke-linecap="round" stroke-linejoin="round"/>
<path d="M18.5288 25.3331L22.6147 27.3115L22.0564 22.5846L18.5288 25.3331Z" fill="#E27625" stroke="#E27625" stroke-width="0.25" stroke-linecap="round" stroke-linejoin="round"/>
<path d="M22.6147 27.3117L18.5288 25.3333L18.8613 27.987L18.8257 29.1125L22.6147 27.3117Z" fill="#D5BFB2" stroke="#D5BFB2" stroke-width="0.25" stroke-linecap="round" stroke-linejoin="round"/>
<path d="M9.94128 27.3117L13.7422 29.1125L13.7184 27.987L14.039 25.3333L9.94128 27.3117Z" fill="#D5BFB2" stroke="#D5BFB2" stroke-width="0.25" stroke-linecap="round" stroke-linejoin="round"/>
<path d="M13.8133 20.8313L10.4163 19.8362L12.8155 18.7344L13.8133 20.8313Z" fill="#233447" stroke="#233447" stroke-width="0.25" stroke-linecap="round" stroke-linejoin="round"/>
<path d="M18.7545 20.8313L19.7523 18.7344L22.1634 19.8362L18.7545 20.8313Z" fill="#233447" stroke="#233447" stroke-width="0.25" stroke-linecap="round" stroke-linejoin="round"/>
<path d="M9.94123 27.3115L10.5352 22.4305L6.75806 22.5372L9.94123 27.3115Z" fill="#CC6228" stroke="#CC6228" stroke-width="0.25" stroke-linecap="round" stroke-linejoin="round"/>
<path d="M22.0326 22.4305L22.6146 27.3115L25.8097 22.5372L22.0326 22.4305Z" fill="#CC6228" stroke="#CC6228" stroke-width="0.25" stroke-linecap="round" stroke-linejoin="round"/>
<path d="M24.8949 17.052L18.1248 17.36L18.7542 20.8313L19.752 18.7342L22.1632 19.836L24.8949 17.052Z" fill="#CC6228" stroke="#CC6228" stroke-width="0.25" stroke-linecap="round" stroke-linejoin="round"/>
<path d="M10.4162 19.836L12.8155 18.7342L13.8132 20.8313L14.4427 17.36L7.67249 17.052L10.4162 19.836Z" fill="#CC6228" stroke="#CC6228" stroke-width="0.25" stroke-linecap="round" stroke-linejoin="round"/>
<path d="M7.67273 17.052L10.5115 22.5846L10.4164 19.836L7.67273 17.052Z" fill="#E27525" stroke="#E27525" stroke-width="0.25" stroke-linecap="round" stroke-linejoin="round"/>
<path d="M22.1634 19.836L22.0565 22.5846L24.8953 17.052L22.1634 19.836Z" fill="#E27525" stroke="#E27525" stroke-width="0.25" stroke-linecap="round" stroke-linejoin="round"/>
<path d="M14.4432 17.36L13.8136 20.8313L14.6094 24.9303L14.7876 19.528L14.4432 17.36Z" fill="#E27525" stroke="#E27525" stroke-width="0.25" stroke-linecap="round" stroke-linejoin="round"/>
<path d="M18.125 17.36L17.7924 19.5162L17.9587 24.9303L18.7545 20.8313L18.125 17.36Z" fill="#E27525" stroke="#E27525" stroke-width="0.25" stroke-linecap="round" stroke-linejoin="round"/>
<path d="M18.7545 20.8314L17.9587 24.9304L18.5289 25.3332L22.0566 22.5847L22.1634 19.8362L18.7545 20.8314Z" fill="#F5841F" stroke="#F5841F" stroke-width="0.25" stroke-linecap="round" stroke-linejoin="round"/>
<path d="M10.4163 19.8362L10.5113 22.5847L14.0389 25.3332L14.6091 24.9304L13.8133 20.8314L10.4163 19.8362Z" fill="#F5841F" stroke="#F5841F" stroke-width="0.25" stroke-linecap="round" stroke-linejoin="round"/>
<path d="M18.8258 29.1124L18.8613 27.9869L18.5526 27.7262H14.0153L13.7184 27.9869L13.7422 29.1124L9.94128 27.3116L11.2716 28.4015L13.9678 30.2616H18.5881L21.2963 28.4015L22.6147 27.3116L18.8258 29.1124Z" fill="#C0AC9D" stroke="#C0AC9D" stroke-width="0.25" stroke-linecap="round" stroke-linejoin="round"/>
<path d="M18.5287 25.3331L17.9585 24.9304H14.609L14.039 25.3331L13.7183 27.9869L14.0152 27.7262H18.5525L18.8613 27.9869L18.5287 25.3331Z" fill="#161616" stroke="#161616" stroke-width="0.25" stroke-linecap="round" stroke-linejoin="round"/>
<path d="M30.6439 11.2943L31.6536 6.38969L30.1332 1.82857L18.5288 10.4177L22.9947 14.185L29.3017 16.0214L30.6915 14.3983L30.0857 13.9599L31.0478 13.0833L30.3114 12.5146L31.2735 11.7801L30.6439 11.2943Z" fill="#763E1A" stroke="#763E1A" stroke-width="0.25" stroke-linecap="round" stroke-linejoin="round"/>
<path d="M0.914307 6.38969L1.93578 11.2943L1.28252 11.7801L2.25648 12.5146L1.52007 13.0833L2.48215 13.9599L1.87639 14.3983L3.26608 16.0214L9.57314 14.185L14.0391 10.4177L2.43464 1.82857L0.914307 6.38969Z" fill="#763E1A" stroke="#763E1A" stroke-width="0.25" stroke-linecap="round" stroke-linejoin="round"/>
<path d="M29.3019 16.0213L22.9949 14.185L24.8953 17.0521L22.0565 22.5846L25.8098 22.5372H31.4161L29.3019 16.0213Z" fill="#F5841F" stroke="#F5841F" stroke-width="0.25" stroke-linecap="round" stroke-linejoin="round"/>
<path d="M9.57289 14.185L3.26591 16.0213L1.16357 22.5372H6.75793L10.5112 22.5846L7.67251 17.0521L9.57289 14.185Z" fill="#F5841F" stroke="#F5841F" stroke-width="0.25" stroke-linecap="round" stroke-linejoin="round"/>
<path d="M18.1249 17.3601L18.5287 10.4176L20.3579 5.47745H12.2098L14.039 10.4176L14.4428 17.3601L14.5972 19.5399L14.6091 24.9304H17.9586L17.9705 19.5399L18.1249 17.3601Z" fill="#F5841F" stroke="#F5841F" stroke-width="0.25" stroke-linecap="round" stroke-linejoin="round"/>
</svg>
