<svg width="16" height="16" viewBox="0 0 16 16" fill="none" xmlns="http://www.w3.org/2000/svg">
<path d="M2.79874 6.8142C3.33766 4.4392 5.46259 2.66668 7.99993 2.66668C9.93531 2.66668 11.631 3.69748 12.5661 5.24241L10.8702 4.69851C10.5196 4.58607 10.1442 4.77913 10.0318 5.12973C9.91932 5.48033 10.1124 5.8557 10.463 5.96815L13.7963 7.0372C13.9991 7.10223 14.2208 7.06648 14.3928 6.94098C14.5648 6.81548 14.6666 6.61534 14.6666 6.40238V2.66666C14.6666 2.29847 14.3681 1.99999 13.9999 1.99999C13.6317 1.99999 13.3333 2.29847 13.3333 2.66666V3.99953C12.1175 2.3813 10.1815 1.33334 7.99993 1.33334C4.82636 1.33334 2.17216 3.55018 1.49847 6.51915C1.41699 6.87821 1.64202 7.23534 2.00108 7.31682C2.36014 7.39829 2.71727 7.17326 2.79874 6.8142Z" fill="white"/>
<path d="M14.5014 9.48087C14.5829 9.12181 14.3578 8.76468 13.9988 8.6832C13.6397 8.60173 13.2826 8.82676 13.2011 9.18582C12.6622 11.5608 10.5373 13.3333 7.99993 13.3333C6.04239 13.3333 4.33009 12.2788 3.40196 10.7044L5.83823 11.3134C6.19543 11.4027 6.55738 11.1855 6.64668 10.8283C6.73598 10.4712 6.51881 10.1092 6.16161 10.0199L2.16161 9.01989C1.96245 8.9701 1.75145 9.01485 1.58964 9.14119C1.42783 9.26752 1.33325 9.46137 1.33325 9.66666V13.3333C1.33325 13.7015 1.63173 14 1.99992 14C2.36811 14 2.66659 13.7015 2.66658 13.3333L2.66659 12.0005C3.88233 13.6187 5.81832 14.6667 7.99993 14.6667C11.1735 14.6667 13.8277 12.4498 14.5014 9.48087Z" fill="white"/>
</svg>
